<mxfile host="app.diagrams.net" modified="2024-05-06T05:34:27.721Z" agent="Mozilla/5.0 (Windows NT 10.0; Win64; x64) AppleWebKit/537.36 (KHTML, like Gecko) Chrome/124.0.0.0 Safari/537.36" etag="Y-XQohhi-fGcbUeKoHvH" version="24.3.1" type="github">
  <diagram name="Page-1" id="e5j1YcytrhzOcWArKGa0">
    <mxGraphModel dx="1674" dy="739" grid="1" gridSize="10" guides="1" tooltips="1" connect="1" arrows="1" fold="1" page="1" pageScale="1" pageWidth="1654" pageHeight="2336" math="0" shadow="0">
      <root>
        <mxCell id="0" />
        <mxCell id="1" parent="0" />
        <mxCell id="Fo6nghEQ5Y57YeRDRLed-1" value="&lt;span data-meta=&quot;&lt;--(miro-data-v1)tl2kroutqq+gnq+gn111oZynrqBnXZ2qnK2fhJ9ddV2wk6WRhoiGhaaGkHhdZ12fnK+cXXW2XaqdpaCer65ddZa2XbKkn6Kgr3+cr5xddbZdpa6qqV11tl2aq6qupK+kqqlddbZdqqGhrqCvi7NddbZds111a2ddtF11a7i4Z12unpynoF11tl2unpynoF11bLhnXa2gp5yvpLGgjp6cp6BddWxnXa2qr5yvpKqpXXW2Xa2qr5yvpKqpXXVruGddraCnnK+ksaCNqq+cr6SqqV11a2ddrqS1oF11tl2ypJ+vo111b3RvaXFzcHNzbnFta3FzdHFnXaOgpKKjr111bHNruGddmqucraCpr111qbCnp2ddr6Czr111XXereY2grLCkraCooKmvrltjpKlbqq2foK1bqqFbpKirqq2vnKmeoGR1d2qreXeqp3l3p6Rbn5yvnGinpK6veJddqq2foK2gn5ddeXeuq5ypW56nnK6ueJddrKdosKSXXXl3rqucqVuep5yurniXXaynaKekrq9osKSXXXl3aq6rnKl5d2quq5ypeY+joK2gW66jqrCnn1udoFucqVucsJ+kr1unqqJbqqFbnKenW6uctKigqa+uW6icn6BbqrCvW6+qW66gp6egra7923dqp6R5d6ekW5+cr5xop6Sur3iXXaqtn6CtoJ+XXXl3rqucqVuep5yurniXXaynaLCkl115d66rnKlbnqecrq54l12sp2inpK6vaLCkl115d2quq5ypeXdqrqucqXmOoKenoK2uW66jqrCnn1udoFurnKSfW6qwr2dbpKlbr6OgpK1bq62goaCtraCfW6GqrahbqqFbq5y0qKCpr2l3aqekeXenpFufnK+caKekrq94l12qrZ+graCfl115d66rnKlbnqecrq54l12sp2iwpJddeXeuq5ypW56nnK6ueJddrKdop6Sur2iwpJddeXdqrqucqXl3aq6rnKl5jqCnp6CtrluypKenW52gW56cp6ekqaJbsKtbqqlbr6OgW66vnK+wrluqoVuvo6CkrVurnLSooKmvrlxcW4OcsaBbnFuynLRbr6pbr6Cnp1uvo6CoW6+joFuur5yvsK5bqqFbr6OgpK1bq5y0qKCpr2dbqq1brq+gq65braCssKStoJ9br6pboaSzW5yptFurraqdp6Corndqp6R5d6ekW5+cr5xop6Sur3iXXaqtn6CtoJ+XXXl3rqucqVuep5yurniXXaynaLCkl115d66rnKlbnqecrq54l12sp2inpK6vaLCkl115d2quq5ypeXdqrqucqXmGoKCrW6+joFurnLSooKmvW6Kcr6CynLRboaCgrluvqlucW6ikqaSosKh3aqekeXenpFufnK+caKekrq94l12qrZ+graCfl115d66rnKlbnqecrq54l12sp2iwpJddeXeuq5ypW56nnK6ueJddrKdop6Sur2iwpJddeXdqrqucqXl3aq6rnKl5iapbq5y0qKCpr65brqOqsKefW52gW5+tqquroJ9pd2qnpHl3p6Rbn5yvnGinpK6veJddqq2foK2gn5ddeXeuq5ypW56nnK6ueJddrKdosKSXXXl3rqucqVuep5yurniXXaynaKekrq9osKSXXXl3aq6rnKl5d2quq5ypeYmqW5+wq6eknpyvoFurnLSooKmvrluuo6qwp59bnaBbqJyfoFuqsK9pd2qnpHl3aqqneV1nXa6vtKegXXVdtpddrq+XXXVsb2eXXZ2el111aGxnl12dqpdddWxnl12drp6XXXVrZ5ddr5yXXXWXXaeXXWeXXa+el111bHJsa3Fsc2eXXa+unpdddWxnl12hoamXXXWXXYqroKmOnKmul11nl12rl111a2eXXZ2XXXVrZ5ddsJdddWtnl12kl111a2eXXa6XXXVrZ5ddobKXXXVsZ5ddna2el111aGxnl12draqXXXVsZ5ddna2yl111a2eXXZ2trpdddW1nl12jp5dddWtnl12rsq6ul111a7hduGddr7SroF11Xa+gs69duGddr7SroF11bG9nXaSfXXVrZ12kqaSvpJynhJ9ddV1ub3BzcnFvcHNyc2xwcXNzb25zXbiYZ12ooK+cXXW2Xa6vrbCer7CtoJ9/qp6wqKCpr36qq6SgrYigr5xddbZdsqSfoqCvfqqpr6Cpr65ddZaYuLi4Z12xoK2upKqpXXVtZ12jqq6vXXVdqKStqmmeqqhduA==(/miro-data-v1)--&gt;&quot;&gt;&lt;/span&gt;&lt;div&gt;&lt;div&gt;&lt;div&gt;Requirements (in order of importance):&lt;/div&gt;&lt;ol&gt;&lt;li data-list=&quot;ordered&quot;&gt;&lt;span class=&quot;ql-ui&quot;&gt;&lt;span class=&quot;ql-list-ui&quot;&gt;&lt;/span&gt;&lt;/span&gt;There should be an audit log of all payments made out to sellers&amp;nbsp;&lt;/li&gt;&lt;li data-list=&quot;ordered&quot;&gt;&lt;span class=&quot;ql-ui&quot;&gt;&lt;span class=&quot;ql-list-ui&quot;&gt;&lt;/span&gt;&lt;/span&gt;Sellers should be paid out, in their preferred form of payment.&lt;/li&gt;&lt;li data-list=&quot;ordered&quot;&gt;&lt;span class=&quot;ql-ui&quot;&gt;&lt;span class=&quot;ql-list-ui&quot;&gt;&lt;/span&gt;&lt;/span&gt;Sellers will be calling up on the status of their payments!! Have a way to tell them the status of their payment, or steps required to fix any problems&lt;/li&gt;&lt;li data-list=&quot;ordered&quot;&gt;&lt;span class=&quot;ql-ui&quot;&gt;&lt;span class=&quot;ql-list-ui&quot;&gt;&lt;/span&gt;&lt;/span&gt;Keep the payment gateway fees to a minimum - charge per API call,&amp;nbsp;&lt;/li&gt;&lt;li data-list=&quot;ordered&quot;&gt;&lt;span class=&quot;ql-ui&quot;&gt;&lt;span class=&quot;ql-list-ui&quot;&gt;&lt;/span&gt;&lt;/span&gt;No payments should be dropped.&lt;/li&gt;&lt;li data-list=&quot;ordered&quot;&gt;&lt;span class=&quot;ql-ui&quot;&gt;&lt;span class=&quot;ql-list-ui&quot;&gt;&lt;/span&gt;&lt;/span&gt;No duplicate payments should be made out.&lt;/li&gt;&lt;/ol&gt;&lt;/div&gt;&lt;/div&gt;" style="text;whiteSpace=wrap;html=1;" vertex="1" parent="1">
          <mxGeometry x="200" y="100" width="560" height="160" as="geometry" />
        </mxCell>
        <mxCell id="Fo6nghEQ5Y57YeRDRLed-2" value="&lt;span data-meta=&quot;&lt;--(miro-data-v1)tl2kroutqq+gnq+gn111oZynrqBnXZ2qnK2fhJ9ddV2wk6WRhoiGhaaGkHhdZ12fnK+cXXW2XaqdpaCer65ddZa2XbKkn6Kgr3+cr5xddbZdpa6qqV11tl2aq6qupK+kqqlddbZdqqGhrqCvi7NddbZds111a2ddtF11aG1pc29tbHJrdG9ua29rb2tsoGhsb7i4Z12unpynoF11tl2unpynoF11bLhnXa2gp5yvpLGgjp6cp6BddWxnXa2qr5yvpKqpXXW2Xa2qr5yvpKqpXXVruGddraCnnK+ksaCNqq+cr6SqqV11a2ddrqS1oF11tl2ypJ+vo111bWtraXR0dHR0dHR0dHR0dHRyZ12joKSio69ddW5xa7hnXZqrnK2gqa9ddamwp6dnXa+gs69ddV13q3kdu88du88du89ojqCnp6CtjqCtsaSeoB27zx27zx27zx27z3dqq3l3q3muoKenoK2Ef1tji4Zkd2qreXerea6gp6egrYmcqKB3aqt5d6t5q5y0qKCpr3+gr5ykp66WnqOgnqZqsqStoJh3aqt5d6t5d52tW2p5d2qreXereR27zx27zx27zx27z4utqp+wnq+OoK2xpJ6gHbvPHbvPHbvPaHdqq3l3q3mrraqfsJ6vhH9bY4uGZHdqq3l3q3muoKenoK2Ef3dqq3l3q3muoKenoK2LraSeoHdqq3l3q3mdsLSgrYutpJ6gd2qreXereXedrVtqeXdqq3l3q3kdu88du88du88du8+KrZ+grY6grbGknqAdu88du88du88du893aqt5d6t5qq2foK2Ef1tji4Zkd2qreXereZ2wtKCthH93aqt5d6t5lpirraqfsJ6vroR/rndqq3l3q3mqrZ+grY+kqKCur5yoq/3bd2qreXereXedrVtqeXdqq3l3q3l3aqt5XWddrq+0p6BddV22l12ur5dddWxvZ5ddnZ6XXXVobGeXXZ2ql111bGeXXZ2unpdddWtnl12vnJdddZddp5ddZ5ddr56XXXVscmxrcWxzZ5ddr66el111bGeXXaGhqZdddZddiqugqY6cqa6XXWeXXauXXXVrZ5ddnZdddWtnl12wl111a2eXXaSXXXVrZ5ddrpdddWtnl12hspdddWxnl12drZ6XXXVobGeXXZ2tqpdddWxnl12drbKXXXVrZ5ddna2ul111bWeXXaOnl111l12XXWeXXauyrq6XXXVruF24Z12vtKugXXVdr6Czr124Z12vtKugXXVsb2ddpJ9ddWtnXaSppK+knKeEn111XW5vcHNycW9wc3JzbHBxc3NucG5duJhnXaigr5xddbZdrq+tsJ6vsK2gn3+qnrCooKmvfqqrpKCtiKCvnF11tl2ypJ+ioK9+qqmvoKmvrl11lpi4uLhnXbGgra6kqqlddW1nXaOqrq9ddV2opK2qaZ6qqF24(/miro-data-v1)--&gt;&quot;&gt;&lt;/span&gt;&lt;div&gt;&lt;div&gt;&lt;div&gt;———-SellerService————&lt;/div&gt;&lt;div&gt;sellerID (PK)&lt;/div&gt;&lt;div&gt;sellerName&lt;/div&gt;&lt;div&gt;paymentDetails[check/wire]&lt;/div&gt;&lt;div&gt;&lt;br&gt;&lt;/div&gt;&lt;div&gt;————ProductService———-&lt;/div&gt;&lt;div&gt;productID (PK)&lt;/div&gt;&lt;div&gt;sellerID&lt;/div&gt;&lt;div&gt;sellerPrice&lt;/div&gt;&lt;div&gt;buyerPrice&lt;/div&gt;&lt;div&gt;&lt;br&gt;&lt;/div&gt;&lt;div&gt;————OrderService————&lt;/div&gt;&lt;div&gt;orderID (PK)&lt;/div&gt;&lt;div&gt;buyerID&lt;/div&gt;&lt;div&gt;[]productsIDs&lt;/div&gt;&lt;div&gt;orderTimestamp&amp;nbsp;&lt;/div&gt;&lt;div&gt;&lt;br&gt;&lt;/div&gt;&lt;div&gt;&lt;/div&gt;&lt;/div&gt;&lt;/div&gt;" style="text;whiteSpace=wrap;html=1;" vertex="1" parent="1">
          <mxGeometry x="840" y="80" width="200" height="270" as="geometry" />
        </mxCell>
        <mxCell id="Fo6nghEQ5Y57YeRDRLed-3" value="Seller Service" style="whiteSpace=wrap;html=1;aspect=fixed;" vertex="1" parent="1">
          <mxGeometry x="400" y="510" width="80" height="80" as="geometry" />
        </mxCell>
        <mxCell id="Fo6nghEQ5Y57YeRDRLed-4" value="Product Service" style="whiteSpace=wrap;html=1;aspect=fixed;" vertex="1" parent="1">
          <mxGeometry x="720" y="500" width="80" height="80" as="geometry" />
        </mxCell>
        <mxCell id="Fo6nghEQ5Y57YeRDRLed-5" value="NFRs&lt;div&gt;1. Consistency&lt;/div&gt;&lt;div&gt;2. Reliability&lt;/div&gt;&lt;div&gt;3. Durability - Data should not be lost&lt;/div&gt;&lt;div&gt;4. Fault Tolerance&lt;/div&gt;" style="whiteSpace=wrap;html=1;aspect=fixed;" vertex="1" parent="1">
          <mxGeometry x="200" y="300" width="140" height="140" as="geometry" />
        </mxCell>
        <mxCell id="Fo6nghEQ5Y57YeRDRLed-6" value="Scale&lt;div&gt;1. Order scale ~&amp;nbsp;&lt;/div&gt;" style="whiteSpace=wrap;html=1;aspect=fixed;" vertex="1" parent="1">
          <mxGeometry x="470" y="300" width="80" height="80" as="geometry" />
        </mxCell>
        <mxCell id="Fo6nghEQ5Y57YeRDRLed-8" value="Order SErvice" style="rounded=1;whiteSpace=wrap;html=1;" vertex="1" parent="1">
          <mxGeometry x="1020" y="530" width="120" height="60" as="geometry" />
        </mxCell>
        <mxCell id="Fo6nghEQ5Y57YeRDRLed-9" value="1. Order, create seller_order txn&lt;div&gt;2. aggregate across seeler_txn sellers -&amp;gt; seller_id, amount&lt;/div&gt;&lt;div&gt;3. Interact with Payment gateway to make the payment&lt;/div&gt;" style="rounded=1;whiteSpace=wrap;html=1;" vertex="1" parent="1">
          <mxGeometry x="1190" y="150" width="350" height="200" as="geometry" />
        </mxCell>
        <mxCell id="Fo6nghEQ5Y57YeRDRLed-11" value="order vent&lt;div&gt;q async&lt;/div&gt;" style="shape=message;html=1;html=1;outlineConnect=0;labelPosition=center;verticalLabelPosition=bottom;align=center;verticalAlign=top;" vertex="1" parent="1">
          <mxGeometry x="250" y="740" width="60" height="40" as="geometry" />
        </mxCell>
        <mxCell id="Fo6nghEQ5Y57YeRDRLed-13" value="" style="edgeStyle=orthogonalEdgeStyle;rounded=0;orthogonalLoop=1;jettySize=auto;html=1;" edge="1" parent="1" source="Fo6nghEQ5Y57YeRDRLed-12" target="Fo6nghEQ5Y57YeRDRLed-11">
          <mxGeometry relative="1" as="geometry" />
        </mxCell>
        <mxCell id="Fo6nghEQ5Y57YeRDRLed-21" value="" style="edgeStyle=orthogonalEdgeStyle;rounded=0;orthogonalLoop=1;jettySize=auto;html=1;" edge="1" parent="1" source="Fo6nghEQ5Y57YeRDRLed-12" target="Fo6nghEQ5Y57YeRDRLed-16">
          <mxGeometry relative="1" as="geometry" />
        </mxCell>
        <mxCell id="Fo6nghEQ5Y57YeRDRLed-24" style="edgeStyle=orthogonalEdgeStyle;rounded=0;orthogonalLoop=1;jettySize=auto;html=1;entryX=0;entryY=0.5;entryDx=0;entryDy=0;" edge="1" parent="1" source="Fo6nghEQ5Y57YeRDRLed-12" target="Fo6nghEQ5Y57YeRDRLed-23">
          <mxGeometry relative="1" as="geometry" />
        </mxCell>
        <mxCell id="Fo6nghEQ5Y57YeRDRLed-12" value="Seller_order consumers" style="whiteSpace=wrap;html=1;aspect=fixed;" vertex="1" parent="1">
          <mxGeometry x="420" y="730" width="80" height="80" as="geometry" />
        </mxCell>
        <mxCell id="Fo6nghEQ5Y57YeRDRLed-18" value="" style="edgeStyle=orthogonalEdgeStyle;rounded=0;orthogonalLoop=1;jettySize=auto;html=1;" edge="1" parent="1" source="Fo6nghEQ5Y57YeRDRLed-16" target="Fo6nghEQ5Y57YeRDRLed-17">
          <mxGeometry relative="1" as="geometry" />
        </mxCell>
        <mxCell id="Fo6nghEQ5Y57YeRDRLed-16" value="" style="shape=cylinder3;whiteSpace=wrap;html=1;boundedLbl=1;backgroundOutline=1;size=15;" vertex="1" parent="1">
          <mxGeometry x="430" y="890" width="60" height="80" as="geometry" />
        </mxCell>
        <mxCell id="Fo6nghEQ5Y57YeRDRLed-17" value="order_id&lt;div&gt;seller_id&lt;/div&gt;&lt;div&gt;product_id&lt;/div&gt;&lt;div&gt;amount&lt;/div&gt;&lt;div&gt;mode&lt;/div&gt;&lt;div&gt;created_time&amp;nbsp;&lt;/div&gt;&lt;div&gt;status&lt;/div&gt;" style="rounded=1;whiteSpace=wrap;html=1;" vertex="1" parent="1">
          <mxGeometry x="500" y="900" width="120" height="60" as="geometry" />
        </mxCell>
        <mxCell id="Fo6nghEQ5Y57YeRDRLed-19" style="edgeStyle=orthogonalEdgeStyle;rounded=0;orthogonalLoop=1;jettySize=auto;html=1;entryX=0.425;entryY=0.991;entryDx=0;entryDy=0;entryPerimeter=0;" edge="1" parent="1" source="Fo6nghEQ5Y57YeRDRLed-12" target="Fo6nghEQ5Y57YeRDRLed-4">
          <mxGeometry relative="1" as="geometry" />
        </mxCell>
        <mxCell id="Fo6nghEQ5Y57YeRDRLed-20" style="edgeStyle=orthogonalEdgeStyle;rounded=0;orthogonalLoop=1;jettySize=auto;html=1;entryX=0.638;entryY=1.028;entryDx=0;entryDy=0;entryPerimeter=0;" edge="1" parent="1" source="Fo6nghEQ5Y57YeRDRLed-12" target="Fo6nghEQ5Y57YeRDRLed-3">
          <mxGeometry relative="1" as="geometry" />
        </mxCell>
        <mxCell id="Fo6nghEQ5Y57YeRDRLed-34" style="edgeStyle=orthogonalEdgeStyle;rounded=0;orthogonalLoop=1;jettySize=auto;html=1;" edge="1" parent="1" source="Fo6nghEQ5Y57YeRDRLed-38" target="Fo6nghEQ5Y57YeRDRLed-33">
          <mxGeometry relative="1" as="geometry" />
        </mxCell>
        <mxCell id="Fo6nghEQ5Y57YeRDRLed-22" value="Payment&lt;div&gt;Service&lt;/div&gt;" style="whiteSpace=wrap;html=1;aspect=fixed;" vertex="1" parent="1">
          <mxGeometry x="1000" y="760" width="150" height="150" as="geometry" />
        </mxCell>
        <mxCell id="Fo6nghEQ5Y57YeRDRLed-23" value="Aggregator,&lt;div&gt;&lt;br&gt;&lt;/div&gt;" style="whiteSpace=wrap;html=1;aspect=fixed;" vertex="1" parent="1">
          <mxGeometry x="680" y="800" width="80" height="80" as="geometry" />
        </mxCell>
        <mxCell id="Fo6nghEQ5Y57YeRDRLed-26" value="" style="edgeStyle=orthogonalEdgeStyle;rounded=0;orthogonalLoop=1;jettySize=auto;html=1;" edge="1" parent="1" source="Fo6nghEQ5Y57YeRDRLed-23" target="Fo6nghEQ5Y57YeRDRLed-25">
          <mxGeometry relative="1" as="geometry" />
        </mxCell>
        <mxCell id="Fo6nghEQ5Y57YeRDRLed-28" value="" style="edgeStyle=orthogonalEdgeStyle;rounded=0;orthogonalLoop=1;jettySize=auto;html=1;" edge="1" parent="1" source="Fo6nghEQ5Y57YeRDRLed-25" target="Fo6nghEQ5Y57YeRDRLed-27">
          <mxGeometry relative="1" as="geometry" />
        </mxCell>
        <mxCell id="Fo6nghEQ5Y57YeRDRLed-29" value="" style="edgeStyle=orthogonalEdgeStyle;rounded=0;orthogonalLoop=1;jettySize=auto;html=1;" edge="1" parent="1" source="Fo6nghEQ5Y57YeRDRLed-25" target="Fo6nghEQ5Y57YeRDRLed-27">
          <mxGeometry relative="1" as="geometry" />
        </mxCell>
        <mxCell id="Fo6nghEQ5Y57YeRDRLed-30" style="edgeStyle=orthogonalEdgeStyle;rounded=0;orthogonalLoop=1;jettySize=auto;html=1;entryX=0;entryY=0.5;entryDx=0;entryDy=0;" edge="1" parent="1" source="Fo6nghEQ5Y57YeRDRLed-25" target="Fo6nghEQ5Y57YeRDRLed-22">
          <mxGeometry relative="1" as="geometry" />
        </mxCell>
        <mxCell id="Fo6nghEQ5Y57YeRDRLed-25" value="msg q" style="shape=message;html=1;html=1;outlineConnect=0;labelPosition=center;verticalLabelPosition=bottom;align=center;verticalAlign=top;" vertex="1" parent="1">
          <mxGeometry x="830" y="830" width="60" height="40" as="geometry" />
        </mxCell>
        <mxCell id="Fo6nghEQ5Y57YeRDRLed-27" value="seller_id, &amp;lt;amount, wire_details&amp;gt;" style="text;html=1;align=center;verticalAlign=middle;resizable=0;points=[];autosize=1;strokeColor=none;fillColor=none;" vertex="1" parent="1">
          <mxGeometry x="760" y="888" width="200" height="30" as="geometry" />
        </mxCell>
        <mxCell id="Fo6nghEQ5Y57YeRDRLed-31" value="" style="shape=cylinder3;whiteSpace=wrap;html=1;boundedLbl=1;backgroundOutline=1;size=15;" vertex="1" parent="1">
          <mxGeometry x="1050" y="918" width="60" height="80" as="geometry" />
        </mxCell>
        <mxCell id="Fo6nghEQ5Y57YeRDRLed-32" value="payment_id&lt;div&gt;seller_id&lt;/div&gt;&lt;div&gt;amount&lt;/div&gt;&lt;div&gt;mode&amp;lt;mode_details&amp;gt;&lt;/div&gt;&lt;div&gt;status - UNPROCESSED, IN_PROGRESS, SUCCESS/FAILED&lt;br&gt;detail_status&lt;/div&gt;&lt;div&gt;timestamp&lt;/div&gt;&lt;div&gt;txn_id&lt;/div&gt;" style="text;html=1;align=center;verticalAlign=middle;resizable=0;points=[];autosize=1;strokeColor=none;fillColor=none;" vertex="1" parent="1">
          <mxGeometry x="1010" y="918" width="360" height="130" as="geometry" />
        </mxCell>
        <mxCell id="Fo6nghEQ5Y57YeRDRLed-33" value="Payment Gateway" style="rounded=0;whiteSpace=wrap;html=1;" vertex="1" parent="1">
          <mxGeometry x="1400" y="830" width="120" height="60" as="geometry" />
        </mxCell>
        <mxCell id="Fo6nghEQ5Y57YeRDRLed-35" value="Audit_log&lt;div&gt;payment_id&lt;/div&gt;&lt;div&gt;status&lt;/div&gt;&lt;div&gt;timestamp&lt;/div&gt;" style="text;html=1;align=center;verticalAlign=middle;resizable=0;points=[];autosize=1;strokeColor=none;fillColor=none;" vertex="1" parent="1">
          <mxGeometry x="1120" y="1060" width="90" height="70" as="geometry" />
        </mxCell>
        <mxCell id="Fo6nghEQ5Y57YeRDRLed-37" value="" style="edgeStyle=orthogonalEdgeStyle;rounded=0;orthogonalLoop=1;jettySize=auto;html=1;" edge="1" parent="1" source="Fo6nghEQ5Y57YeRDRLed-22" target="Fo6nghEQ5Y57YeRDRLed-38">
          <mxGeometry relative="1" as="geometry">
            <mxPoint x="1150" y="835" as="sourcePoint" />
            <mxPoint x="1400" y="860" as="targetPoint" />
          </mxGeometry>
        </mxCell>
        <mxCell id="Fo6nghEQ5Y57YeRDRLed-38" value="Bacground Process/Service&lt;div&gt;(scheduled fashion)&lt;/div&gt;" style="whiteSpace=wrap;html=1;aspect=fixed;" vertex="1" parent="1">
          <mxGeometry x="1200" y="790" width="80" height="80" as="geometry" />
        </mxCell>
        <mxCell id="Fo6nghEQ5Y57YeRDRLed-39" value="Unocessed, (In_progress, timestamp &amp;lt; today-1 )" style="rhombus;whiteSpace=wrap;html=1;" vertex="1" parent="1">
          <mxGeometry x="810" y="1190" width="250" height="80" as="geometry" />
        </mxCell>
      </root>
    </mxGraphModel>
  </diagram>
</mxfile>
